# AST/ASF file generated using VICON BodyLanguage
# -----------------------------------------------
:version 1.10
:name VICON
:units
  mass 1.0
  length 0.45
  angle deg
:documentation
   .ast/.asf automatically generated from VICON data using
   VICON BodyBuilder and BodyLanguage model FoxedUp or BRILLIANT.MOD
:root
   order TX TY TZ RX RY RZ
   axis XYZ
   position 0 0 0  
   orientation 0 0 0 
:bonedata
  begin
     id 1 
     name lhipjoint
     direction 0.611804 -0.747784 0.257906 
     length 2.29243 
     axis 0 0 0  XYZ
  end
  begin
     id 2 
     name lfemur
     direction 0.34202 -0.939693 0  
     length 7.31159  
     axis 0 0 20  XYZ
    dof rx ry rz
    limits (-160.0 20.0)
           (-70.0 70.0)
           (-60.0 70.0)
  end
  begin
     id 3 
     name ltibia
     direction 0.34202 -0.939693 0   
     length 7.33391   
     axis 0 0 20   XYZ
    dof rx
    limits (-10.0 170.0)
  end
  begin
     id 4 
     name lfoot
     direction 0.122263 -0.335914 0.933924   
     length 1.76083   
     axis -90 7.62852e-016 20   XYZ
    dof rx rz
    limits (-45.0 90.0)
           (-70.0 20.0)
  end
  begin
     id 5 
     name ltoes
     direction 1.53533e-011 -4.2177e-011 1   
     length 0.879206   
     axis -90 7.62852e-016 20   XYZ
    dof rx
    limits (-90.0 20.0)
  end
  begin
     id 6 
     name rhipjoint
     direction -0.646469 -0.721248 0.248754   
     length 2.37677  
     axis 0 0 0  XYZ 
  end
  begin
     id 7 
     name rfemur
     direction -0.34202 -0.939693 0   
     length 7.18623   
     axis 0 0 -20   XYZ
    dof rx ry rz
    limits (-160.0 20.0)
           (-70.0 70.0)
           (-70.0 60.0)
  end
  begin
     id 8 
     name rtibia
     direction -0.34202 -0.939693 0   
     length 7.36567   
     axis 0 0 -20   XYZ
    dof rx
    limits (-10.0 170.0)
 end
 begin
     id 9 
     name rfoot
     direction -0.126681 -0.348054 0.928876   
     length 1.71902  
     axis -90 -7.62852e-016 -20   XYZ
    dof rx rz
    limits (-45.0 90.0)
           (-20.0 70.0)
  end
  begin
     id 10 
     name rtoes
     direction -1.53551e-011 -4.21898e-011 1   
     length 0.857792   
     axis -90 -7.62852e-016 -20   XYZ
    dof rx
    limits (-90.0 20.0)
  end
  begin
     id 11 
     name lowerback
     direction 0.0106509 0.999778 0.0181844   
     length 2.07668   
     axis 0 0 0   XYZ
    dof rx ry rz
    limits (-20.0 45.0)
           (-30.0 30.0)
           (-30.0 30.0)
  end
  begin
     id 12 
     name upperback
     direction -0.00456018 0.999989 -0.000590935   
     length 2.08011   
     axis 0 0 0   XYZ
    dof rx ry rz
    limits (-20.0 45.0)
           (-30.0 30.0)
           (-30.0 30.0)
  end
  begin
     id 13 
     name thorax
     direction -0.00910382 0.999916 -0.00923765   
     length 2.07397   
     axis 0 0 0   XYZ
    dof rx ry rz
    limits (-20.0 45.0)
           (-30.0 30.0)
           (-30.0 30.0)
  end
  begin
     id 14 
     name lowerneck
     direction 0.00171967 0.99778 0.0665733   
     length 1.67556   
     axis 0 0 0   XYZ
    dof rx ry rz
    limits (-20.0 45.0)
           (-30.0 30.0)
           (-30.0 30.0)
  end
  begin
     id 15 
     name upperneck
     direction -0.0143166 0.991302 -0.130828   
     length 1.68462   
     axis 0 0 0   XYZ
    dof rx ry rz
    limits (-20.0 45.0)
           (-30.0 30.0)
           (-30.0 30.0)
  end
  begin
     id 16
     name head
     direction -0.00606378 0.998665 -0.0512995  
     length 1.69269  
     axis 0 0 0   XYZ
    dof rx ry rz
    limits (-20.0 45.0)
           (-30.0 30.0)
           (-30.0 30.0)
  end
  begin
     id 17 
     name lclavicle
     direction 0.9638 0.179341 0.197297  
     length 4.12888  
     axis 0 0 0   XYZ
    dof ry rz
    limits (-20.0 10.0)
           (0.0 20.0)
  end
  begin
     id 18 
     name lhumerus
     direction 1 -4.48972e-011 -2.47351e-027   
     length 5.01834   
     axis -180 -30 -90   XYZ
    dof rx ry rz
    limits (-60.0 90.0)
           (-90.0 90.0)
           (-90.0 90.0)
  end
  begin
     id 19
     name lradius
     direction 1 -4.48965e-011 1.51591e-026   
     length 3.4869   
     axis -180 -30 -90   XYZ
    dof rx
    limits (-10.0 170.0)
  end
  begin
     id 20
     name lwrist
     direction 1 -4.48957e-011 2.70032e-026   
     length 1.74345   
     axis -1.81515e-014 90 90   XYZ
    dof ry
    limits (-180.0 0.0)
 end
  begin
     id 21 
     name lhand
     direction 1 -4.48951e-011 5.40064e-026   
     length 0.76799   
     axis -3.44607e-014 90 90   XYZ
    dof rx rz
    limits (-90.0 90.0)
           (-45.0 45.0)
  end
  begin
     id 22 
     name lfingers
     direction 1 -4.48971e-011 1.08013e-025   
     length 0.619174   
     axis -6.89214e-014 90 90   XYZ
    dof rx
    limits (0.0 90.0)
  end
  begin
     id 23
     name lthumb
     direction 0.707107 -6.34931e-011 0.707107   
     length 0.889013   
     axis -90 45 2.85299e-015   XYZ
    dof rx rz
    limits (-45.0 45.0)
           (-45.0 45.0)
  end
  begin
     id 24 
     name rclavicle
     direction -0.961409 0.252588 0.109054   
     length 4.04305  
     axis 0 0 0   XYZ 
    dof ry rz
    limits (-10.0 20.0)
           (-20.0 0.0)
  end
  begin
     id 25 
     name rhumerus
     direction -1 -4.4897e-011 1.33872e-017  
     length 4.70164   
     axis -180 30 90   XYZ
    dof rx ry rz
    limits (-90.0 60.0)
           (-90.0 90.0)
           (-90.0 90.0)
  end
  begin
     id 26 
     name rradius
     direction -1 -4.48954e-011 1.83844e-026   
     length 3.49911   
     axis -180 30 90   XYZ
    dof rx
    limits (-10.0 170.0)
  end
  begin
     id 27 
     name rwrist
     direction -1 -4.49008e-011 2.70032e-026   
     length 1.74955   
     axis -1.81515e-014 -90 -90   XYZ
    dof ry
    limits (-180.0 0.0)
  end
  begin
     id 28
     name rhand
     direction -1 -4.48916e-011 5.40064e-026   
     length 0.739335   
     axis -3.44607e-014 -90 -90   XYZ
    dof rx rz
    limits (-90.0 90.0)
           (-45.0 45.0)
  end
  begin
     id 29
     name rfingers
     direction -1 -4.48987e-011 1.08013e-025   
     length 0.596071   
     axis -6.89214e-014 -90 -90   XYZ
    dof rx
    limits (0.0 90.0)
  end
  begin
     id 30
     name rthumb
     direction -0.707107 -6.34935e-011 0.707107   
     length 0.855843   
     axis -90 -45 -2.85299e-015   XYZ
    dof rx rz
    limits (-45.0 45.0)
           (-45.0 45.0)
  end
:hierarchy
  begin
    root lhipjoint rhipjoint lowerback
    lhipjoint lfemur
    lfemur ltibia
    ltibia lfoot
    lfoot ltoes
    rhipjoint rfemur
    rfemur rtibia
    rtibia rfoot
    rfoot rtoes
    lowerback upperback
    upperback thorax
    thorax lowerneck lclavicle rclavicle
    lowerneck upperneck
    upperneck head
    lclavicle lhumerus
    lhumerus lradius
    lradius lwrist
    lwrist lhand lthumb
    lhand lfingers
    rclavicle rhumerus
    rhumerus rradius
    rradius rwrist
    rwrist rhand rthumb
    rhand rfingers
  end

#!OML:ASF I:\salsa\salsa 7_09\Patient 1\Session 1\dancermale.ASF
:FULLY-SPECIFIED
:DEGREES
1
root -12.7032 17.5968 -0.726073 40.243 83.623 33.353
lowerback -5.18582 1.82727 -4.5689
upperback -0.106798 2.74304 -0.763977
thorax 2.62107 1.31969 1.97026
lowerneck -2.83483 -6.24991 -2.38961
upperneck 15.7487 -8.15835 0.92674
head 5.34749 -3.95262 0.238289
rclavicle 2.40405e-015 -4.27387e-015
rhumerus -32.7468 -14.4762 -89.652
rradius 31.0775
rwrist 21.5198
rhand -27.2941 7.78828
rfingers 7.12502
rthumb -0.704148 -22.1903
lclavicle 2.40405e-015 -4.27387e-015
lhumerus -29.9052 2.01102 91.7407
lradius 32.8763
lwrist 9.2187
lhand -31.1061 49.5799
lfingers 7.12502
lthumb -4.38559 79.5145
rfemur -10.1112 9.37011 14.1862
rtibia 12.1968
rfoot -13.0289 -12.6702
rtoes 0.502334
lfemur -6.58821 -1.36409 -23.1075
ltibia 9.36753
lfoot -19.4311 8.15621
ltoes 15.1194
2
root -12.7117 17.6896 -0.754983 37.3453 83.746 27.1959
lowerback -8.40915 1.72039 -4.14972
upperback -1.06267 2.72504 -0.564802
thorax 3.44493 1.31696 2.04766
lowerneck -3.15706 -6.34539 -2.16994
upperneck 15.9889 -8.22276 0.377744
head 5.44521 -4.00366 0.0158624
rclavicle -2.50841e-014 2.22639e-014
rhumerus -32.9555 -13.7796 -89.6853
rradius 31.5056
rwrist 21.2416
rhand -27.2139 8.15384
rfingers 7.12502
rthumb -0.626719 -21.825
lclavicle -2.50841e-014 2.22639e-014
lhumerus -29.7503 1.48301 92.1552
lradius 33.1997
lwrist 9.47071
lhand -30.8644 49.1999
lfingers 7.12502
lthumb -4.15222 79.1392
rfemur -14.3414 9.41745 14.1944
rtibia 13.1729
rfoot -13.0444 -12.7208
rtoes 0.151213
lfemur -10.5195 -1.10509 -22.3821
ltibia 9.94147
lfoot -19.223 8.13411
ltoes 17.2729
3
root -12.7214 17.7371 -0.774758 34.8676 83.9391 22.9283
lowerback -10.0417 1.63926 -3.93395
upperback -1.70385 2.67055 -0.387412
thorax 3.69073 1.30335 2.15525
lowerneck -3.21986 -6.44988 -1.97132
upperneck 16.1281 -8.32417 0.00547688
head 5.47577 -4.06401 -0.140412
rclavicle -4.5472e-015 -1.3418e-014
rhumerus -33.4048 -14.4164 -89.239
rradius 32.3717
rwrist 23.5652
rhand -25.4265 7.24455
rfingers 7.12502
rthumb 1.09964 -22.7324
lclavicle -4.5472e-015 -1.3418e-014
lhumerus -29.799 0.640513 92.5665
lradius 33.6442
lwrist 9.77758
lhand -30.6915 49.4307
lfingers 7.12502
lthumb -3.9852 79.3731
rfemur -16.6331 9.50118 14.346
rtibia 13.6623
rfoot -13.008 -12.8891
rtoes 0.24601
lfemur -12.6577 -1.0991 -21.819
ltibia 10.2101
lfoot -19.1317 8.14687
ltoes 18.0619
4
root -12.7325 17.7385 -0.786504 32.5556 84.2603 20.2386
lowerback -10.1813 1.57444 -3.89937
upperback -1.99399 2.57833 -0.172289
thorax 3.46291 1.26982 2.34665
lowerneck -3.31153 -6.56643 -1.73017
upperneck 16.2695 -8.43663 -0.423875
head 5.50681 -4.13122 -0.322683
rclavicle 3.96762e-014 -1.59028e-015
rhumerus -33.8967 -15.0034 -88.7198
rradius 33.1564
rwrist 25.7767
rhand -23.7882 5.99102
rfingers 7.12502
rthumb 2.68194 -23.9719
lclavicle 3.96762e-014 -1.59028e-015
lhumerus -29.8817 -0.198294 93.0375
lradius 34.0442
lwrist 9.96084
lhand -30.6574 49.5486
lfingers 7.12502
lthumb -3.95235 79.4917
rfemur -17.0525 9.561 14.6787
rtibia 13.6374
rfoot -12.9075 -13.1094
rtoes 0.546621
lfemur -13.0674 -1.34704 -21.3507
ltibia 10.1826
lfoot -19.1955 8.11337
ltoes 18.6006
5
root -12.7339 17.7385 -0.804791 30.0562 84.4166 17.4336
lowerback -10.3265 1.53301 -3.84351
upperback -2.28923 2.51706 0.0426219
thorax 3.2323 1.2528 2.52984
lowerneck -3.39206 -6.61482 -1.669
upperneck 16.461 -8.44987 -0.776248
head 5.56195 -4.15477 -0.448019
rclavicle 2.68856e-014 8.74653e-015
rhumerus -34.0812 -14.5555 -88.4604
rradius 32.9718
rwrist 26.3644
rhand -23.5548 5.11285
rfingers 7.12502
rthumb 2.90733 -24.8471
lclavicle 2.68856e-014 8.74653e-015
lhumerus -30.0807 -0.802278 93.5047
lradius 34.4137
lwrist 10.0697
lhand -30.6279 49.3009
lfingers 7.12502
lthumb -3.92384 79.2445
rfemur -17.3267 9.53159 14.9272
rtibia 13.5191
rfoot -12.9178 -13.1368
rtoes 1.58505
lfemur -13.2274 -1.61082 -21.0058
ltibia 9.88845
lfoot -19.2135 8.28784
ltoes 18.4227
6
root -12.7314 17.739 -0.826607 27.3149 84.5032 14.4405
lowerback -10.4564 1.47141 -3.73882
upperback -2.58794 2.42512 0.251809
thorax 2.99451 1.22171 2.67526
lowerneck -3.21381 -6.62004 -1.77314
upperneck 16.5296 -8.43022 -0.872735
head 5.55359 -4.15576 -0.454716
rclavicle 4.93234e-015 -4.37326e-015
rhumerus -34.1893 -13.9837 -88.303
rradius 32.4045
rwrist 26.2124
rhand -24.2702 4.77708
rfingers 7.12502
rthumb 2.21636 -25.1912
lclavicle 4.93234e-015 -4.37326e-015
lhumerus -30.4272 -1.2621 93.8893
lradius 34.8811
lwrist 10.2991
lhand -30.5578 49.1143
lfingers 7.12502
lthumb -3.8561 79.0591
rfemur -17.5044 9.52517 15.1628
rtibia 13.3717
rfoot -13.0869 -13.1298
rtoes 3.79144
lfemur -13.2555 -1.75046 -20.7124
ltibia 9.45272
lfoot -19.1955 8.48856
ltoes 17.6758
7
root -12.7317 17.7393 -0.846653 24.4102 84.6155 11.3359
lowerback -10.5199 1.43177 -3.62459
upperback -2.82281 2.35992 0.441564
thorax 2.7862 1.20163 2.79737
lowerneck -3.04528 -6.7226 -1.6529
upperneck 16.3592 -8.53907 -1.17676
head 5.45305 -4.22413 -0.562789
rclavicle 1.9307e-014 -5.36719e-015
rhumerus -34.1681 -13.6182 -88.1226
rradius 31.9344
rwrist 25.9791
rhand -24.4866 4.07739
rfingers 7.12502
rthumb 2.00744 -25.8929
lclavicle 1.9307e-014 -5.36719e-015
lhumerus -30.7606 -1.78225 94.2464
lradius 35.4137
lwrist 10.5428
lhand -30.5205 49.0533
lfingers 7.12502
lthumb -3.82014 78.9988
rfemur -17.576 9.60958 15.4228
rtibia 13.1191
rfoot -13.1123 -13.204
rtoes 5.0965
lfemur -13.2442 -1.76625 -20.3951
ltibia 9.01853
lfoot -19.0761 8.49165
ltoes 17.0132
8
root -12.7336 17.744 -0.863668 21.1376 84.7347 7.74156
lowerback -10.6877 1.40965 -3.46605
upperback -3.06158 2.32045 0.602382
thorax 2.63255 1.19386 2.87151
lowerneck -3.08582 -6.87394 -1.40597
upperneck 16.2238 -8.70394 -1.6293
head 5.38562 -4.32292 -0.747381
rclavicle 1.53499e-014 3.77691e-015
rhumerus -34.152 -13.4247 -87.9169
rradius 31.4937
rwrist 25.7232
rhand -24.339 3.33322
rfingers 7.12502
rthumb 2.14993 -26.6357
lclavicle 1.53499e-014 3.77691e-015
lhumerus -31.0773 -2.36127 94.5414
lradius 35.93
lwrist 10.743
lhand -30.4635 49.15
lfingers 7.12502
lthumb -3.76507 79.0965
rfemur -17.7594 9.8507 15.6938
rtibia 12.7919
rfoot -12.9682 -13.4227
rtoes 5.146
lfemur -13.3981 -1.60053 -20.01
ltibia 8.60049
lfoot -18.8927 8.30613
ltoes 16.5706
9
root -12.7329 17.7493 -0.880294 18.0895 84.8902 4.31467
lowerback -10.9894 1.36365 -3.27583
upperback -3.29452 2.25348 0.720196
thorax 2.56341 1.17082 2.88482
lowerneck -2.83307 -7.05091 -1.79905
upperneck 15.9677 -8.9809 -1.22405
head 5.30189 -4.4577 -0.562253
rclavicle 2.40157e-014 -2.38542e-015
rhumerus -34.0865 -13.3245 -87.7263
rradius 30.8647
rwrist 25.5319
rhand -24.5366 3.1266
rfingers 7.12502
rthumb 1.95909 -26.8442
lclavicle 2.40157e-014 -2.38542e-015
lhumerus -31.3424 -2.84582 94.733
lradius 36.3235
lwrist 10.9189
lhand -30.3899 49.3154
lfingers 7.12502
lthumb -3.69399 79.2632
rfemur -17.9523 10.1419 15.9142
rtibia 12.4071
rfoot -12.8606 -13.7381
rtoes 5.25053
lfemur -13.6696 -1.38223 -19.6666
ltibia 8.23077
lfoot -18.6791 8.10157
ltoes 16.374
10
root -12.7327 17.7522 -0.896706 15.0477 85.1028 1.00097
lowerback -11.2144 1.31279 -3.05922
upperback -3.46486 2.1735 0.804327
thorax 2.52025 1.13841 2.84486
lowerneck -2.54372 -7.24724 -2.11728
upperneck 15.6037 -9.29174 -0.83094
head 5.17669 -4.60764 -0.390624
rclavicle 2.71093e-014 1.78906e-014
rhumerus -34.2104 -14.2495 -87.2067
rradius 30.4866
rwrist 26.3949
rhand -24.6269 3.24282
rfingers 7.12502
rthumb 1.87191 -26.7287
lclavicle 2.71093e-014 1.78906e-014
lhumerus -31.5015 -3.11833 94.8127
lradius 36.5661
lwrist 10.8277
lhand -30.4532 49.16
lfingers 7.12502
lthumb -3.7551 79.1066
rfemur -18.0286 10.3556 16.133
rtibia 12.0518
rfoot -12.8208 -14.0508
rtoes 5.49185
lfemur -13.9023 -1.16009 -19.366
ltibia 7.94826
lfoot -18.418 7.87911
ltoes 16.1372
11
root -12.7327 17.7531 -0.911779 11.8043 85.316 -2.39542
lowerback -11.3922 1.23046 -2.84912
upperback -3.54056 2.0477 0.878731
thorax 2.55249 1.07841 2.7926
lowerneck -2.53926 -7.35355 -2.40879
upperneck 15.5621 -9.47898 -0.398253
head 5.20092 -4.68987 -0.223875
rclavicle -1.922e-014 -1.98785e-015
rhumerus -34.2901 -15.3136 -86.6958
rradius 30.1608
rwrist 27.5693
rhand -24.6619 3.25617
rfingers 7.12502
rthumb 1.83809 -26.7157
lclavicle -1.922e-014 -1.98785e-015
lhumerus -31.5715 -3.148 94.7374
lradius 36.7418
lwrist 10.6007
lhand -30.5667 48.6734
lfingers 7.12502
lthumb -3.86472 78.6181
rfemur -18.0168 10.4673 16.3762
rtibia 11.777
rfoot -12.7978 -14.2902
rtoes 5.47614
lfemur -14.0363 -0.922301 -19.0806
ltibia 7.78177
lfoot -18.2838 7.52472
ltoes 16.008
12
root -12.736 17.751 -0.931685 8.78172 85.4137 -5.43161
lowerback -11.4808 1.17552 -2.61916
upperback -3.51172 1.949 0.945875
thorax 2.64327 1.02726 2.72373
lowerneck -2.69944 -7.43134 -2.53954
upperneck 15.5977 -9.60715 -0.175977
head 5.25835 -4.74649 -0.151309
rclavicle -2.04189e-014 -9.54166e-015
rhumerus -34.0918 -16.0114 -86.3244
rradius 29.6103
rwrist 28.4427
rhand -24.7805 3.57586
rfingers 7.12502
rthumb 1.7236 -26.3969
lclavicle -2.04189e-014 -9.54166e-015
lhumerus -31.562 -3.21543 94.7398
lradius 36.7399
lwrist 11.0763
lhand -30.3663 49.3494
lfingers 7.12502
lthumb -3.67117 79.2975
rfemur -17.8867 10.5238 16.5866
rtibia 11.5225
rfoot -12.7028 -14.3877
rtoes 5.27581
lfemur -14.0409 -0.806821 -18.8643
ltibia 7.71802
lfoot -18.2555 7.30264
ltoes 16.2558
13
root -12.7414 17.7448 -0.956603 5.91152 85.4083 -8.12026
lowerback -11.3522 1.19251 -2.33347
upperback -3.41115 1.93082 0.985422
thorax 2.68729 1.01425 2.59925
lowerneck -2.88099 -7.58666 -2.6093
upperneck 15.6009 -9.82931 -0.0685505
head 5.30216 -4.85328 -0.128916
rclavicle -1.59214e-014 -8.94531e-015
rhumerus -33.8271 -16.7781 -85.9236
rradius 29.0235
rwrist 29.2678
rhand -24.7154 4.03462
rfingers 7.12502
rthumb 1.78642 -25.9377
lclavicle -1.59214e-014 -8.94531e-015
lhumerus -31.466 -3.23744 94.7586
lradius 36.6057
lwrist 11.3432
lhand -30.3062 49.8601
lfingers 7.12502
lthumb -3.61313 79.8092
rfemur -17.5778 10.51 16.8028
rtibia 11.3199
rfoot -12.5463 -14.3447
rtoes 5.17348
lfemur -13.8438 -0.743504 -18.7102
ltibia 7.70178
lfoot -18.2071 7.25507
ltoes 16.4421
